<svg xmlns="http://www.w3.org/2000/svg" width="3000" height="3000" viewBox="0 0 3000 3000" version="1.1"><path d="M 1226.703 420.383 C 1221.143 422.453, 1215.267 426.604, 1209.747 432.361 C 1204.748 437.575, 1198.035 447.692, 1197.956 450.131 C 1197.931 450.884, 1197.011 449.793, 1195.910 447.708 C 1193.669 443.461, 1188.776 440.007, 1185 440.007 C 1181.941 440.007, 1176.497 443.203, 1175.096 445.821 C 1174.528 446.882, 1173.763 449.627, 1173.396 451.922 L 1172.729 456.094 1170.612 454.105 C 1167.461 451.145, 1158.075 447.131, 1151.436 445.904 C 1127.984 441.568, 1109.057 459.169, 1109.012 485.356 C 1108.972 508.249, 1123.982 527.269, 1139.820 524.397 C 1146.249 523.231, 1151.278 519.969, 1159.600 511.567 C 1166.163 504.942, 1168.536 501.656, 1172.100 494.258 C 1174.520 489.236, 1176.783 485.099, 1177.129 485.064 C 1177.474 485.029, 1178.292 486.291, 1178.946 487.869 C 1181.044 492.934, 1186.333 497.171, 1191.252 497.725 C 1195.163 498.166, 1196.099 497.852, 1199.327 495.018 C 1203.846 491.050, 1206.360 483.611, 1205.385 477.093 L 1204.726 472.685 1208.613 475.797 C 1215.879 481.614, 1221.360 483.377, 1233.500 483.801 C 1244.365 484.181, 1244.580 484.145, 1251 480.822 C 1258.513 476.933, 1263.011 471.210, 1265.628 462.209 C 1267.730 454.977, 1267.106 443.223, 1264.282 436.878 C 1261.635 430.929, 1255.735 424.422, 1250.568 421.755 C 1245.355 419.064, 1232.267 418.312, 1226.703 420.383 M 1232.324 432.439 C 1226.638 434.218, 1221.860 437.306, 1217.739 441.867 C 1213.871 446.148, 1205.993 457.454, 1206.013 458.695 C 1206.030 459.784, 1219.407 468.399, 1225 470.924 C 1230.206 473.275, 1237.657 473.589, 1242.282 471.653 C 1246.655 469.822, 1252.635 462.976, 1253.928 458.321 C 1256.973 447.355, 1253.761 437.205, 1245.994 433.250 C 1241.017 430.715, 1238.346 430.557, 1232.324 432.439 M 1138.368 460.029 C 1134.713 461.158, 1129.054 467.091, 1125.802 473.205 C 1123.864 476.849, 1123.516 479.015, 1123.509 487.500 C 1123.499 498.289, 1125.231 503.721, 1130.491 509.396 C 1135.722 515.040, 1144.395 511.734, 1153.108 500.775 C 1159.624 492.579, 1171.940 472.311, 1171.986 469.707 C 1171.994 469.271, 1167.772 466.870, 1162.605 464.372 C 1152.575 459.523, 1144.622 458.098, 1138.368 460.029 M 1202.515 574.337 C 1201.071 576.540, 1201.292 577.324, 1206.386 588.087 C 1216.949 610.405, 1220.454 624.825, 1220.461 646 C 1220.466 659.006, 1220.101 662.847, 1218.195 669.871 C 1213.586 686.856, 1206.229 700.604, 1193.845 715.371 C 1178.508 733.661, 1159.372 747.690, 1131.500 761.079 C 1104.233 774.177, 1080.475 781.780, 1028.500 794.042 C 977.573 806.056, 960.238 811.593, 936.063 823.566 C 918.956 832.040, 908.600 839.429, 897.489 851.091 C 876.234 873.401, 865 901.438, 865 932.173 C 865 976.570, 894.411 1022.074, 937.166 1043.827 C 947.221 1048.942, 962.505 1054.424, 964.050 1053.469 C 966.352 1052.046, 964.541 1050.105, 958.529 1047.550 C 936.453 1038.167, 911.522 1018.204, 897.712 998.850 C 870.520 960.742, 869.043 910.696, 894.043 874.532 C 901.160 864.236, 913.913 851.429, 923.398 845.051 C 945.114 830.447, 968.660 822.058, 1033 806 C 1091.900 791.300, 1117.471 782.860, 1144.639 769.155 C 1187.309 747.629, 1219.036 713.606, 1230.416 677.172 C 1241.716 640.991, 1234.959 598.119, 1214.774 577.934 C 1208.201 571.361, 1205.067 570.441, 1202.515 574.337 M 2788.500 613.008 C 2774.813 614.900, 2761.205 621.832, 2751.035 632.095 C 2742.518 640.690, 2739.558 645.831, 2729.031 670.316 C 2718.879 693.929, 2714.551 702.454, 2708.999 709.770 C 2704.632 715.526, 2704.212 717.101, 2706.534 719.028 C 2708.761 720.876, 2711.898 718.911, 2719.375 710.985 C 2726.074 703.884, 2731.508 694.308, 2739.511 675.500 C 2750.208 650.360, 2758.669 638.653, 2770.822 632.175 C 2791.305 621.258, 2818.577 625.052, 2833.983 640.961 C 2844.054 651.360, 2847.544 658.839, 2865.971 709.500 C 2885.167 762.278, 2908.814 835.986, 2912.906 855.799 C 2914.272 862.417, 2914.314 875.328, 2912.985 880.113 C 2910.543 888.904, 2902.344 897, 2895.882 897 C 2891.060 897, 2887.813 894.256, 2877.884 881.793 C 2866.235 867.171, 2858.407 854.718, 2845.956 831 C 2839.748 819.175, 2832.980 806.991, 2830.916 803.925 C 2817.814 784.462, 2794.002 774.954, 2775.758 781.900 C 2772.244 783.239, 2764.371 790.472, 2763.720 792.961 C 2763.063 795.476, 2765.602 799, 2768.072 799 C 2769.149 799, 2772.611 797.538, 2775.765 795.750 C 2780.845 792.871, 2782.356 792.503, 2789 792.525 C 2798.141 792.556, 2803.817 795.159, 2812.723 803.404 C 2817.778 808.084, 2820.092 811.616, 2828.957 828.181 C 2852.906 872.927, 2871.095 898.341, 2884 905.084 C 2889.975 908.206, 2899.689 908.286, 2905.540 905.262 C 2911.856 901.997, 2917.897 895.444, 2921.307 888.159 C 2924.138 882.113, 2924.461 880.396, 2924.822 869.500 C 2925.506 848.875, 2922.754 837.879, 2899.543 768.500 C 2882.349 717.103, 2867.853 676.421, 2861.112 660.643 C 2851.664 638.528, 2841.250 626.323, 2825.500 618.903 C 2814.270 613.613, 2800.265 611.382, 2788.500 613.008 M 2653.151 779.883 C 2590.058 828.914, 2542.828 874.429, 2507.239 920.500 C 2497.815 932.700, 2478.813 961.102, 2471.748 973.548 C 2454.569 1003.812, 2439.860 1039.271, 2431.500 1070.575 L 2428.809 1080.650 2435.525 1087.075 C 2447.236 1098.279, 2458.737 1113.555, 2465.371 1126.717 C 2471.214 1138.310, 2468.966 1136.720, 2440.848 1109.374 C 2395.851 1065.611, 2368.104 1043.367, 2312.500 1006.480 C 2268.041 976.986, 2233.209 956.672, 2197.500 939.411 C 2172.477 927.316, 2135.348 911.175, 2134.675 912.100 C 2134.515 912.320, 2133.096 915.650, 2131.522 919.500 C 2123.833 938.304, 2107.026 968.702, 2097.244 981.493 C 2093.169 986.824, 2090 988.475, 2090 985.270 C 2090 984.238, 2097.694 966.550, 2107.097 945.963 C 2119.393 919.043, 2123.934 908.119, 2123.268 907.063 C 2121.026 903.509, 2081.422 892.924, 2075.719 894.356 C 2069.972 895.798, 2046.168 919.547, 2026.597 943.362 C 2006.479 967.845, 1992.213 989.140, 1961.256 1040.901 C 1935.467 1084.021, 1920.641 1106.914, 1905.471 1127.039 C 1872.221 1171.148, 1839.742 1201.731, 1802.023 1224.448 C 1794.963 1228.700, 1788.981 1232.966, 1788.729 1233.927 C 1788.167 1236.079, 1799.080 1272.269, 1810.011 1304.500 C 1880.231 1511.543, 1997.107 1716.696, 2143.859 1890.500 C 2221.704 1982.695, 2310.982 2069.344, 2401.500 2140.553 C 2424.777 2158.865, 2477.885 2196.058, 2505.831 2213.619 L 2514.162 2218.854 2518.118 2217.458 C 2520.294 2216.690, 2525.754 2214.148, 2530.251 2211.809 C 2555.229 2198.814, 2575.652 2175.543, 2577.625 2157.830 C 2578.244 2152.273, 2578.121 2151.902, 2571.490 2139.330 C 2518.920 2039.658, 2437.343 1897.451, 2404.656 1848.500 C 2366.202 1790.912, 2284.889 1694.433, 2245 1659.067 C 2229.583 1645.398, 2221.650 1636.240, 2219.269 1629.364 C 2218.587 1627.394, 2217.553 1621.893, 2216.972 1617.141 C 2211.503 1572.438, 2190.944 1459.919, 2163.500 1324.500 C 2140.401 1210.515, 2132.973 1166.557, 2136.603 1165.310 C 2138.327 1164.718, 2146.455 1193.773, 2154.001 1227.500 C 2155.724 1235.200, 2157.350 1242.262, 2157.616 1243.193 C 2158.142 1245.036, 2159.426 1245.463, 2187.500 1253.109 C 2236.802 1266.538, 2287.083 1276.288, 2344.232 1283.500 C 2384.117 1288.533, 2402.484 1289.990, 2426 1289.987 C 2466.371 1289.981, 2491.043 1284.964, 2519.500 1270.977 C 2536.874 1262.438, 2550.497 1252.344, 2565.545 1236.863 C 2592.988 1208.628, 2614.270 1172.669, 2639.459 1111.977 C 2663.248 1054.657, 2679.677 1004.147, 2729.190 836.110 C 2731.662 827.719, 2732.155 824.516, 2731.750 819.470 C 2730.133 799.329, 2711.104 780.697, 2682.289 771.043 C 2677.293 769.369, 2672.133 768, 2670.823 768 C 2669.306 768, 2662.893 772.312, 2653.151 779.883 M 1748.051 788.083 C 1568.032 797.849, 1415.128 878.502, 1327.334 1010 C 1312.122 1032.785, 1291 1071.257, 1291 1076.180 C 1291 1079.549, 1294.136 1082.230, 1297.602 1081.825 C 1299.932 1081.553, 1301.015 1080.288, 1304.304 1074 C 1330.431 1024.054, 1360.300 983.514, 1398.638 945.965 C 1438.882 906.550, 1482.984 876.165, 1534.837 852.127 C 1627.959 808.958, 1738.244 792.047, 1851.500 803.571 C 1915.796 810.114, 1990.790 829.566, 2063.612 858.592 C 2077.974 864.316, 2090.453 869, 2091.343 869 C 2093.144 869, 2094.602 864.783, 2093.447 862.914 C 2092.526 861.424, 2067.024 849.107, 2049.107 841.498 C 1954.769 801.435, 1848.732 782.622, 1748.051 788.083 M 1738.921 835.925 C 1736.109 838.737, 1735.812 839.562, 1736.301 843.205 C 1737.577 852.722, 1747.385 856.610, 1753.331 849.955 C 1755.738 847.262, 1756.121 846.134, 1755.639 843.162 C 1754.888 838.536, 1750.423 834.105, 1745.747 833.346 C 1742.576 832.832, 1741.674 833.172, 1738.921 835.925 M 1998.923 883.923 C 1997.067 885.779, 1996.001 887.878, 1996.004 889.673 C 1996.009 893.800, 1999.530 898.906, 2003.522 900.574 C 2006.544 901.836, 2007.448 901.840, 2010.420 900.598 C 2015.995 898.269, 2017.646 892.595, 2014.364 887.040 C 2010.615 880.693, 2003.574 879.272, 1998.923 883.923 M 1839.156 912.529 C 1836.723 915.622, 1836.481 917.767, 1838.152 921.434 C 1839.405 924.185, 1841.902 925.336, 1846.346 925.209 C 1856.093 924.932, 1854.743 911.968, 1844.799 910.355 C 1841.835 909.874, 1840.987 910.201, 1839.156 912.529 M 1513.034 930.285 C 1507.405 933.117, 1508.293 941.951, 1514.410 943.970 C 1523.224 946.879, 1529.276 937.093, 1521.897 931.863 C 1518.351 929.350, 1515.795 928.895, 1513.034 930.285 M 1935 1002 C 1932.094 1004.906, 1932.411 1009.392, 1935.707 1011.984 C 1938.873 1014.474, 1942.551 1014.036, 1945.250 1010.847 C 1948.999 1006.416, 1945.893 1000, 1940 1000 C 1938.333 1000, 1936.111 1000.889, 1935 1002 M 1834.933 1009.918 C 1800.418 1048.469, 1772.562 1114.296, 1764.440 1176.500 C 1761.548 1198.655, 1762.279 1228.437, 1766.076 1243.135 C 1767.074 1246.999, 1770 1248.659, 1772.925 1247.022 C 1774.297 1246.254, 1774.510 1242.549, 1774.577 1218.320 C 1774.665 1186.276, 1776.257 1172.427, 1782.967 1145.332 C 1793.272 1103.722, 1805.409 1076.076, 1834.629 1027.657 C 1840.883 1017.294, 1846 1008.047, 1846 1007.107 C 1846 1005.110, 1844.131 1003, 1842.363 1003 C 1841.683 1003, 1838.340 1006.113, 1834.933 1009.918 M 1657.073 1033.635 C 1655.933 1035.084, 1655 1037.273, 1655 1038.500 C 1655 1039.727, 1655.933 1041.916, 1657.073 1043.365 C 1661.272 1048.704, 1671.021 1045.821, 1670.985 1039.250 C 1670.967 1036.001, 1670.336 1034.956, 1667.027 1032.692 C 1663.357 1030.180, 1659.503 1030.545, 1657.073 1033.635 M 1360.878 1042.862 C 1341.236 1055.804, 1325.897 1074.475, 1313.069 1101.055 C 1303.336 1121.222, 1297.156 1142.773, 1293.299 1170 C 1290.827 1187.451, 1290.833 1248.249, 1293.309 1275 C 1294.251 1285.175, 1295.267 1296.200, 1295.566 1299.500 L 1296.111 1305.500 1289.459 1292.500 C 1276.518 1267.205, 1265.181 1249.397, 1247.565 1226.691 C 1237.556 1213.791, 1234.919 1211.507, 1234.216 1215.128 C 1234.060 1215.932, 1238.968 1225.345, 1245.122 1236.045 C 1264.715 1270.112, 1283.939 1308.876, 1293.547 1333.694 C 1295.930 1339.850, 1298.540 1345.925, 1299.346 1347.194 C 1300.152 1348.462, 1301.119 1352.875, 1301.495 1357 C 1302.968 1373.151, 1309.830 1419.516, 1311.596 1425.250 C 1311.916 1426.289, 1313.123 1427, 1314.567 1427 L 1317 1427 1316.999 1407.750 C 1316.998 1386.305, 1315.631 1365.996, 1310.520 1311.500 C 1305.541 1258.398, 1304.675 1241.534, 1305.283 1209.525 C 1305.865 1178.859, 1307.477 1164.717, 1312.922 1142.500 C 1321.699 1106.690, 1337.997 1076.970, 1363.627 1050.038 C 1375.795 1037.250, 1374.506 1033.882, 1360.878 1042.862 M 1741.170 1048.296 C 1739.885 1049.844, 1735.790 1069.790, 1733.326 1086.500 C 1730.795 1103.666, 1730.780 1153.203, 1733.301 1171 C 1735.868 1189.120, 1736.480 1191.003, 1739.789 1190.985 C 1745.433 1190.953, 1745.357 1191.422, 1743.971 1165.239 C 1742.455 1136.589, 1743.141 1102.758, 1745.871 1071.560 C 1746.927 1059.493, 1747.565 1049.030, 1747.289 1048.310 C 1746.641 1046.623, 1742.566 1046.613, 1741.170 1048.296 M 1453 1086.707 C 1443.519 1090.170, 1445.794 1105.005, 1456.055 1106.634 C 1458.944 1107.093, 1460.209 1106.695, 1462.805 1104.510 C 1465.493 1102.249, 1466 1101.135, 1466 1097.488 C 1466 1093.982, 1465.412 1092.566, 1462.923 1090.077 C 1461.231 1088.385, 1459.243 1087, 1458.505 1087 C 1457.767 1087, 1456.564 1086.811, 1455.832 1086.579 C 1455.099 1086.348, 1453.825 1086.405, 1453 1086.707 M 1553.493 1094.250 C 1550.062 1103.905, 1545.025 1124.168, 1540.007 1148.500 C 1523.041 1230.768, 1513.018 1275.316, 1505.381 1302.412 C 1488.022 1363.994, 1469.051 1411.035, 1443.240 1456.500 C 1427.149 1484.843, 1415.696 1500.504, 1398.592 1517.554 C 1372.707 1543.358, 1347.354 1555, 1317.043 1555 C 1283.169 1555, 1253.841 1541.728, 1225.367 1513.513 C 1205.668 1493.994, 1192.761 1475.464, 1179.466 1447.617 C 1156.373 1399.249, 1141.915 1347.991, 1128.523 1267 C 1126.568 1255.175, 1124.724 1244.306, 1124.426 1242.847 C 1123.943 1240.484, 1124.300 1240.058, 1127.692 1238.958 C 1129.786 1238.279, 1140.950 1233.701, 1152.500 1228.785 C 1174.365 1219.478, 1197.160 1211.443, 1217.286 1205.948 C 1229.897 1202.506, 1234 1200.206, 1234 1196.582 C 1234 1193.664, 1231.048 1191, 1227.815 1191 C 1225.342 1191, 1225.272 1190.798, 1224.610 1181.750 C 1222.513 1153.129, 1214.351 1125.697, 1204.537 1114.292 C 1200.239 1109.298, 1189.613 1103.687, 1185.370 1104.172 C 1180.113 1104.773, 1181.150 1107.922, 1189.294 1116.089 C 1197.926 1124.745, 1201.625 1131.682, 1205.443 1146.376 C 1207.833 1155.576, 1211.412 1178.172, 1212.282 1189.553 L 1212.669 1194.607 1196.584 1199.815 C 1180.932 1204.883, 1153.539 1215.493, 1139.606 1221.884 C 1135.814 1223.623, 1132.620 1224.923, 1132.508 1224.773 C 1132.396 1224.623, 1131.773 1221.182, 1131.123 1217.127 C 1129.621 1207.765, 1124.010 1192.534, 1118.732 1183.500 C 1113.579 1174.678, 1103.940 1164.523, 1097.721 1161.364 C 1095.093 1160.030, 1090.593 1158.482, 1087.721 1157.925 C 1077.876 1156.016, 1064.409 1160.224, 1061.030 1166.265 C 1059.667 1168.701, 1059.664 1169.290, 1061 1171.651 C 1063.647 1176.329, 1065.434 1176.767, 1070.530 1173.986 C 1077.009 1170.452, 1086.489 1170.554, 1093.592 1174.235 C 1104.271 1179.769, 1111.731 1191.003, 1120.408 1214.617 C 1122.810 1221.153, 1125.076 1227.229, 1125.445 1228.121 C 1125.864 1229.135, 1125.532 1229.966, 1124.557 1230.340 C 1123.701 1230.668, 1123 1230.501, 1123 1229.969 C 1123 1228.024, 1118.036 1229.015, 1116.571 1231.251 C 1113.900 1235.327, 1116.866 1275.691, 1122.013 1305.336 C 1124.677 1320.677, 1134.470 1359.589, 1141.522 1382.854 C 1172.231 1484.169, 1215.848 1542.290, 1276.349 1562.515 C 1290.380 1567.206, 1301.828 1569, 1317.724 1569 C 1353.533 1569, 1381.876 1556.150, 1410.683 1526.856 C 1422.826 1514.508, 1428.386 1507.851, 1437.706 1494.500 C 1481.519 1431.744, 1515.854 1338.933, 1539.996 1218 C 1547.946 1178.177, 1555.184 1128.877, 1556.549 1105.250 C 1557.187 1094.219, 1557.092 1093, 1555.597 1093 C 1554.684 1093, 1553.737 1093.563, 1553.493 1094.250 M 1997.946 1111.826 C 1992.440 1115.326, 1986.060 1122.266, 1974.235 1137.620 C 1969.203 1144.154, 1961.435 1154, 1956.972 1159.500 C 1952.509 1165, 1946.454 1173.368, 1943.517 1178.097 C 1938.684 1185.876, 1930 1202.183, 1930 1203.478 C 1930 1206.595, 1942.402 1193.796, 1974.552 1157.500 C 1979.424 1152, 1986.838 1143.842, 1991.027 1139.371 C 2003.475 1126.088, 2009.432 1115.543, 2007.026 1111.049 C 2005.541 1108.273, 2003.223 1108.472, 1997.946 1111.826 M 1137.250 1112.031 C 1135.623 1112.685, 1135 1113.760, 1135 1115.911 C 1135 1119.431, 1138.071 1122, 1142.279 1122 C 1144.374 1122, 1146.363 1123.304, 1149.907 1127 C 1155.189 1132.510, 1159.284 1133.554, 1162.345 1130.171 C 1166.324 1125.774, 1162.103 1117.134, 1153.943 1112.971 C 1149.833 1110.874, 1141.320 1110.395, 1137.250 1112.031 M 1838.455 1128.050 C 1836.101 1130.651, 1836.036 1136.465, 1838.336 1138.764 C 1840.663 1141.092, 1848.316 1141.112, 1850.631 1138.798 C 1851.567 1137.861, 1852.333 1135.653, 1852.333 1133.889 C 1852.333 1127.346, 1842.743 1123.311, 1838.455 1128.050 M 1092.907 1129.307 C 1087.683 1132.042, 1081.748 1140.095, 1082.201 1143.835 C 1082.741 1148.287, 1085.301 1148.722, 1089.835 1145.130 C 1092.069 1143.361, 1095.997 1141.198, 1098.564 1140.324 C 1104.592 1138.269, 1110.581 1139.508, 1121.302 1145.024 C 1129.863 1149.430, 1132.883 1149.891, 1135.345 1147.171 C 1138.685 1143.481, 1136.808 1140.059, 1128.375 1134.461 C 1117.047 1126.942, 1101.690 1124.710, 1092.907 1129.307 M 1578.944 1134.844 C 1574.258 1138.639, 1577.186 1147, 1583.200 1147 C 1586.614 1147, 1591 1143.064, 1591 1140 C 1591 1137.155, 1586.641 1133, 1583.656 1133 C 1582.317 1133, 1580.197 1133.830, 1578.944 1134.844 M 1346.566 1238.343 C 1343.491 1241.418, 1343.265 1245.265, 1346 1248 C 1350.252 1252.252, 1358 1249.148, 1358 1243.191 C 1358 1239.385, 1356.130 1237.151, 1352.316 1236.402 C 1349.741 1235.896, 1348.642 1236.267, 1346.566 1238.343 M 1164 1296.752 C 1161.063 1298.219, 1160.450 1299.101, 1160.190 1302.236 C 1159.949 1305.147, 1160.436 1306.527, 1162.395 1308.486 C 1165.679 1311.770, 1169.221 1311.668, 1173.129 1308.176 C 1175.948 1305.657, 1176.215 1304.957, 1175.600 1301.679 C 1175.099 1299.009, 1174.116 1297.594, 1172.005 1296.502 C 1168.373 1294.625, 1168.250 1294.628, 1164 1296.752 M 1258.357 1326.970 C 1250.864 1330.069, 1251.571 1341.300, 1259.529 1345.586 C 1267.324 1349.783, 1275.546 1341.563, 1271.674 1333.443 C 1269.144 1328.136, 1262.889 1325.096, 1258.357 1326.970 M 1431.589 1358.077 C 1428.651 1361.569, 1428.327 1364.797, 1430.494 1368.989 C 1434.925 1377.558, 1446.854 1376.626, 1448.551 1367.578 C 1450.367 1357.899, 1437.706 1350.807, 1431.589 1358.077 M 1224.544 1460.951 C 1222.103 1463.649, 1221.991 1469.420, 1224.336 1471.764 C 1226.663 1474.092, 1234.316 1474.112, 1236.631 1471.798 C 1238.956 1469.472, 1238.792 1464.348, 1236.313 1461.869 C 1235.202 1460.758, 1232.537 1459.614, 1230.391 1459.326 C 1227.256 1458.905, 1226.107 1459.224, 1224.544 1460.951 M 1332.635 1482.073 C 1327.567 1486.059, 1330.178 1494, 1336.557 1494 C 1343.379 1494, 1346.309 1487.218, 1341.545 1482.455 C 1338.547 1479.456, 1336.095 1479.351, 1332.635 1482.073 M 2611.667 2186.667 C 2611.300 2187.033, 2611.016 2188.271, 2611.035 2189.417 C 2611.062 2191.073, 2613.559 2192.729, 2623.223 2197.500 C 2645.088 2208.294, 2654.457 2215.840, 2661.393 2228.242 C 2666.406 2237.205, 2668.149 2244.634, 2668.144 2257 C 2668.137 2270.942, 2664.872 2283.712, 2657.533 2298.500 C 2650.382 2312.907, 2643.366 2322.426, 2621 2348.064 C 2591.709 2381.641, 2588.664 2385.812, 2568.105 2420.500 C 2552.653 2446.570, 2538.447 2465.930, 2529.083 2473.678 C 2516.601 2484.007, 2498.150 2491.023, 2483.590 2490.978 C 2474.665 2490.950, 2469.781 2488.830, 2464.300 2482.603 C 2454.531 2471.506, 2457.620 2459.227, 2482.439 2410.500 C 2489.162 2397.300, 2497.662 2379.399, 2501.328 2370.720 C 2514.253 2340.119, 2525.434 2305.431, 2528.636 2286 C 2530.587 2274.160, 2530.796 2250.422, 2529.055 2238.500 C 2527.323 2226.646, 2526.580 2224.779, 2523.748 2225.181 C 2521.559 2225.492, 2521.481 2225.921, 2520.785 2241.500 C 2519.191 2277.154, 2512.073 2310.142, 2498.342 2345.500 C 2493.081 2359.047, 2476.759 2393.445, 2458.957 2428.500 C 2449.119 2447.875, 2446 2457.690, 2446 2469.281 C 2446 2479.975, 2448.755 2486.958, 2455.617 2493.658 C 2464.480 2502.310, 2477.879 2505.533, 2494.486 2503.007 C 2511.862 2500.363, 2526.330 2492.863, 2541.750 2478.507 C 2553.265 2467.787, 2562.137 2455.532, 2579.884 2425.833 C 2597.369 2396.573, 2604.080 2387.303, 2627.544 2360 C 2660.667 2321.457, 2669.741 2306.722, 2676.673 2280.221 C 2680.211 2266.694, 2680.407 2249.045, 2677.148 2237.545 C 2673.541 2224.817, 2668.697 2216.641, 2659.028 2206.963 C 2652.607 2200.536, 2648.471 2197.378, 2642.287 2194.182 C 2631.035 2188.367, 2614.118 2184.215, 2611.667 2186.667" stroke="none" fill="#044606" fill-rule="evenodd"/><path d="M 547 940.061 C 504.107 943.452, 456.572 950.565, 327 972.979 C 301.425 977.403, 267 983.073, 250.500 985.578 C 168.291 998.060, 126.606 1008.178, 97.677 1022.673 C 81.520 1030.768, 74.732 1039.815, 74.612 1053.412 C 74.558 1059.637, 75.005 1061.568, 77.833 1067.313 C 81.439 1074.637, 85.771 1078.362, 94.838 1081.936 C 106.120 1086.383, 125.775 1090.083, 153.500 1092.979 C 159.550 1093.611, 172.375 1095.203, 182 1096.516 C 219.413 1101.623, 228.121 1102.368, 250 1102.331 C 267.348 1102.302, 273.721 1101.892, 283.002 1100.207 C 295.692 1097.903, 309.390 1093.452, 318.302 1088.736 L 324.104 1085.666 342.302 1087.856 C 362.028 1090.229, 372.463 1092.154, 376.757 1094.212 C 378.263 1094.934, 380.270 1097.169, 381.216 1099.178 C 387.270 1112.034, 422.428 1238.259, 456.371 1369 C 496.407 1523.205, 682.816 2221.875, 685.492 2227.757 C 686.307 2229.548, 688.442 2231.949, 690.237 2233.093 C 693.470 2235.153, 693.998 2235.166, 747.500 2234.556 C 821.370 2233.713, 1115.087 2228.377, 1190.500 2226.508 C 1306.496 2223.634, 1336.002 2222.794, 1345.426 2222.097 C 1355.992 2221.317, 1356.444 2221.186, 1359.176 2218.129 C 1364.750 2211.890, 1362.224 2202.549, 1354.251 2199.918 C 1348.932 2198.162, 1263.134 2198.941, 909 2203.959 C 833.375 2205.030, 757.500 2206.169, 740.390 2206.490 L 709.280 2207.073 700.695 2176.787 C 680.946 2107.111, 661.273 2033.401, 589.990 1762 C 496.850 1407.380, 466.182 1292.589, 438.378 1194.500 C 420.285 1130.668, 407.627 1090.521, 402.838 1081.779 C 400.742 1077.953, 399.788 1077.271, 393.825 1075.335 C 390.157 1074.144, 376.345 1071.052, 363.131 1068.464 L 339.106 1063.757 338.428 1060.629 C 336.855 1053.359, 329.995 1048.361, 317.662 1045.501 C 310.329 1043.801, 275.540 1040.349, 221.961 1036.006 C 169.414 1031.747, 162 1030.939, 162 1029.476 C 162 1027.211, 200.672 1026.680, 236.705 1028.450 L 268.910 1030.031 292.705 1025.594 C 305.792 1023.154, 325.275 1019.742, 336 1018.012 C 355.452 1014.875, 388.594 1009.318, 443.500 999.986 C 525.795 985.999, 573.473 982.441, 609.574 987.592 C 623.241 989.543, 631.683 992.014, 646.822 998.499 C 660.742 1004.462, 672.913 1008, 679.500 1008 C 681.799 1008, 687.201 1007.100, 691.504 1005.999 L 699.328 1003.998 713.112 1007.494 C 735.602 1013.197, 744.360 1017.183, 747.204 1023.009 C 749.932 1028.595, 758.719 1059.989, 762.589 1077.971 C 766.256 1095.010, 770.344 1120.682, 771.542 1134.190 L 772.224 1141.879 766.862 1143.422 C 750.529 1148.123, 721.797 1153.659, 673.500 1161.413 C 619.415 1170.096, 613.258 1170.964, 584.118 1174.015 C 545.452 1178.063, 531.939 1180.357, 515.837 1185.608 C 508.698 1187.935, 506.198 1189.893, 507.556 1192.090 C 510.554 1196.942, 611.813 1183.486, 743.829 1160.694 L 785.565 1153.488 799.532 1154.273 C 814.281 1155.103, 994.220 1154.219, 1031.223 1153.136 C 1051.668 1152.537, 1053.071 1152.374, 1055.094 1150.351 C 1057.682 1147.763, 1056.995 1146.340, 1052.128 1144.203 C 1048.987 1142.824, 1038.633 1142.481, 975 1141.651 C 905.136 1140.739, 792.895 1141.790, 789 1143.394 C 787.777 1143.897, 786.891 1141.105, 784.199 1128.256 C 776.522 1091.621, 758.870 1014.246, 757.501 1011.233 C 755.244 1006.266, 748.252 1002.524, 730.927 997.007 L 715.244 992.014 715.753 987.503 C 716.427 981.523, 713.275 976.724, 704.612 970.542 C 688.557 959.086, 648.467 944.548, 623 940.946 C 612.946 939.525, 561.382 938.924, 547 940.061 M 936.500 1180.625 C 851.664 1181.680, 774.223 1184.918, 592 1195.028 C 460.186 1202.341, 464.773 1202.048, 463.250 1203.255 C 462.562 1203.799, 462 1205.531, 462 1207.103 C 462 1209.347, 462.559 1210.102, 464.598 1210.614 C 467.896 1211.442, 498.183 1209.996, 594 1204.439 C 829.286 1190.791, 924.899 1187.658, 1035 1189.987 L 1087.500 1191.097 1089.277 1188.905 C 1090.830 1186.988, 1090.878 1186.448, 1089.659 1184.606 C 1088.395 1182.697, 1087.009 1182.442, 1074.882 1181.880 C 1058.024 1181.098, 965.732 1180.261, 936.500 1180.625 M 1234.035 1185.934 C 1232.629 1188.562, 1232.729 1189.586, 1234.571 1191.429 C 1235.900 1192.757, 1239.372 1193, 1257 1193 C 1274.628 1193, 1278.100 1192.757, 1279.429 1191.429 C 1281.300 1189.557, 1281.461 1186.861, 1279.800 1185.200 C 1278.940 1184.340, 1272.430 1184, 1256.835 1184 C 1236.340 1184, 1235.010 1184.113, 1234.035 1185.934 M 1553.163 1185.598 C 1551.973 1186.432, 1551 1187.978, 1551 1189.034 C 1551 1193.060, 1554.366 1193.744, 1577.500 1194.414 C 1632.670 1196.013, 1706.655 1200.889, 1738.423 1205.018 C 1742.315 1205.524, 1746.294 1205.952, 1747.266 1205.969 C 1748.681 1205.994, 1747.334 1209.219, 1740.465 1222.250 C 1716.443 1267.821, 1699.313 1307.927, 1666.619 1395.148 C 1632.624 1485.842, 1556.003 1701.565, 1510.925 1833.500 C 1505.287 1850, 1500.605 1863.605, 1500.520 1863.734 C 1500.435 1863.862, 1487.346 1863.532, 1471.433 1863 C 1267.772 1856.188, 1052.599 1852.411, 921.500 1853.346 C 793.544 1854.260, 726.177 1856.802, 664.500 1863.044 C 633.545 1866.177, 634.500 1865.971, 634.500 1869.512 L 634.500 1872.500 664 1872.304 C 689.210 1872.136, 740.617 1870.452, 780.562 1868.486 C 810.199 1867.026, 960.790 1866.104, 1019 1867.025 C 1074.588 1867.904, 1294.379 1872.311, 1416.500 1874.995 C 1441.250 1875.538, 1472.364 1875.987, 1485.641 1875.992 L 1509.782 1876 1513.917 1866.573 C 1519.163 1854.610, 1526.366 1834.862, 1540.205 1794.500 C 1546.239 1776.900, 1558.377 1742.250, 1567.178 1717.500 C 1575.978 1692.750, 1591.200 1649.775, 1601.003 1622 C 1624.905 1554.281, 1662.080 1450.092, 1676.823 1409.500 C 1695.251 1358.762, 1703.916 1336.398, 1732.058 1266.953 C 1756.331 1207.055, 1757.974 1202.609, 1756.613 1200.532 C 1755.317 1198.554, 1753.560 1198.123, 1740.827 1196.656 C 1690.043 1190.804, 1631.686 1186.581, 1586.500 1185.489 C 1573.850 1185.183, 1561.661 1184.742, 1559.413 1184.508 C 1556.776 1184.234, 1554.559 1184.620, 1553.163 1185.598 M 971.500 1299.842 C 952.184 1308.564, 918.523 1324.305, 861.756 1351.162 C 833.846 1364.367, 810.549 1375.016, 809.984 1374.828 C 809.418 1374.639, 802.277 1365.039, 794.113 1353.493 C 783.819 1338.933, 778.697 1332.500, 777.399 1332.500 C 773.832 1332.500, 774.882 1336.069, 781.597 1346.759 C 789.588 1359.480, 801 1378.983, 801 1379.920 C 801 1380.283, 791.663 1385.485, 780.250 1391.480 C 768.837 1397.475, 748.518 1408.369, 735.095 1415.690 C 721.673 1423.010, 710.423 1428.996, 710.095 1428.991 C 709.768 1428.986, 707.716 1426.174, 705.535 1422.741 C 703.354 1419.309, 688.442 1396.700, 672.397 1372.500 C 627.013 1304.051, 620.499 1295.455, 619.185 1302.279 C 618.494 1305.867, 642.368 1346.671, 675.775 1399 C 686.485 1415.775, 696.096 1430.895, 697.134 1432.600 L 699.021 1435.701 677.260 1448.481 C 651.583 1463.563, 634.322 1474.719, 633.548 1476.734 C 632.656 1479.061, 634.018 1480.210, 636.859 1479.529 C 640.209 1478.725, 669.956 1463.742, 689.284 1453.123 C 697.415 1448.655, 704.245 1445, 704.461 1445 C 704.677 1445, 708.785 1450.737, 713.590 1457.750 C 718.394 1464.763, 731.847 1484.225, 743.485 1501 C 755.123 1517.775, 764.946 1532.014, 765.315 1532.643 C 765.747 1533.379, 758.057 1537.976, 743.743 1545.540 C 672.123 1583.384, 627.837 1608.656, 626.350 1612.531 C 626.034 1613.353, 626.307 1614.665, 626.955 1615.446 C 627.957 1616.653, 629.289 1616.371, 635.817 1613.571 C 647.018 1608.766, 682.474 1590.926, 731.799 1565.278 C 755.613 1552.895, 775.206 1542.929, 775.339 1543.132 C 777.868 1546.990, 788.946 1561.362, 793.927 1567.250 C 800.412 1574.914, 803.440 1576.622, 804.705 1573.327 C 805.528 1571.182, 799.665 1559.749, 791.411 1547.405 L 785.094 1537.957 830.098 1515.451 C 854.850 1503.073, 875.482 1493.180, 875.947 1493.467 C 876.412 1493.754, 883.885 1504.454, 892.553 1517.245 C 901.222 1530.035, 914.544 1549.373, 922.157 1560.217 C 929.771 1571.061, 936 1580.135, 936 1580.382 C 936 1580.628, 927.112 1585.900, 916.250 1592.097 C 892.527 1605.631, 867.614 1620.764, 856 1628.695 C 846.958 1634.870, 844.982 1638.206, 850.018 1638.794 C 853.002 1639.142, 878.230 1626.154, 916.444 1604.595 C 937.270 1592.845, 942.629 1590.209, 943.615 1591.229 C 944.290 1591.928, 954.152 1605.325, 965.530 1621 C 991.265 1656.453, 997.874 1664.805, 1000.835 1665.618 C 1004.033 1666.497, 1006.460 1663.969, 1005.622 1660.632 C 1004.856 1657.577, 986.465 1629.729, 967.675 1603.171 C 960.154 1592.540, 954 1583.696, 954 1583.518 C 954 1583.340, 967.388 1576.111, 983.750 1567.455 C 1024.174 1546.068, 1060.400 1526.384, 1066.750 1522.356 C 1072.318 1518.823, 1073.248 1516.738, 1070.024 1515.013 C 1067.190 1513.496, 1063.259 1515.292, 1001.717 1546.230 C 972.136 1561.100, 947.785 1573.094, 947.604 1572.883 C 946.992 1572.171, 905.481 1512.604, 896.539 1499.608 C 888.084 1487.318, 887.759 1486.649, 889.585 1485.293 C 891.744 1483.690, 989.134 1434.984, 990.161 1434.994 C 990.524 1434.997, 993.426 1439.162, 996.609 1444.250 C 999.792 1449.338, 1005.916 1458.787, 1010.218 1465.250 C 1017.164 1475.684, 1018.359 1477, 1020.897 1477 C 1022.469 1477, 1024.324 1476.315, 1025.019 1475.477 C 1026.758 1473.381, 1024.952 1469.594, 1011.730 1447.612 C 1005.807 1437.764, 1001.226 1429.435, 1001.551 1429.103 C 1001.876 1428.771, 1010.523 1424.225, 1020.766 1419 C 1031.008 1413.775, 1039.988 1408.552, 1040.721 1407.394 C 1041.874 1405.570, 1041.791 1404.966, 1040.101 1402.894 L 1038.149 1400.500 1029.824 1403.333 C 1025.246 1404.891, 1015.923 1408.829, 1009.106 1412.083 C 1002.290 1415.337, 996.403 1418, 996.024 1418 C 995.646 1418, 992.473 1413.838, 988.974 1408.750 C 951.586 1354.384, 952.623 1355.766, 949.537 1356.208 C 944.277 1356.961, 946.016 1360.745, 970.683 1402.201 C 977.457 1413.587, 983 1423.170, 983 1423.497 C 983 1424.122, 881.108 1475, 879.856 1475 C 879.458 1475, 869.719 1461.388, 858.215 1444.750 C 846.711 1428.112, 832.701 1407.975, 827.082 1400 L 816.866 1385.500 903.460 1342.500 C 985.605 1301.710, 990.041 1299.372, 989.777 1297 C 989.323 1292.902, 985.584 1293.483, 971.500 1299.842 M 762.776 1414.193 L 717.067 1438.301 727.696 1453.901 C 751.530 1488.880, 777.362 1526.552, 778.066 1527.358 C 778.479 1527.830, 789.095 1522.829, 801.658 1516.245 C 814.221 1509.662, 834.288 1499.229, 846.250 1493.063 C 858.212 1486.896, 868 1481.595, 868 1481.283 C 868 1480.772, 810.519 1392.484, 809.085 1390.792 C 808.755 1390.403, 787.916 1400.933, 762.776 1414.193 M 1469.200 1482.200 C 1468.540 1482.860, 1468 1484.043, 1468 1484.828 C 1468 1486.052, 1495.321 1539.539, 1500.618 1548.685 C 1501.632 1550.437, 1502.246 1552.028, 1501.981 1552.221 C 1501.717 1552.413, 1494.750 1555.447, 1486.500 1558.962 C 1459.905 1570.295, 1348.483 1621.483, 1272.719 1657.174 C 1255.239 1665.408, 1240.558 1672, 1240.094 1671.823 C 1239.631 1671.645, 1233.897 1664.683, 1227.353 1656.351 C 1212.853 1637.889, 1176.010 1592.355, 1173.060 1589.250 C 1171.884 1588.013, 1170.355 1587, 1169.661 1587 C 1168.026 1587, 1166 1589.042, 1166 1590.690 C 1166 1591.400, 1179.191 1610.323, 1195.314 1632.741 C 1211.436 1655.160, 1225.400 1674.680, 1226.343 1676.120 L 1228.059 1678.739 1182.779 1701.311 C 1157.876 1713.726, 1136.190 1724.961, 1134.589 1726.277 C 1131.514 1728.803, 1131.721 1731, 1135.033 1731 C 1138.446 1731, 1166.404 1719.197, 1211.817 1698.584 C 1224.641 1692.763, 1235.262 1688, 1235.419 1688 C 1235.756 1688, 1257.013 1715.618, 1269.285 1732 L 1277.899 1743.500 1274.628 1745.182 C 1270.253 1747.432, 1268.699 1749.477, 1269.485 1751.952 C 1270.272 1754.434, 1272.135 1754.514, 1278.514 1752.341 L 1283.384 1750.681 1285.942 1754.036 C 1295.554 1766.642, 1313.943 1787, 1315.717 1787 C 1316.344 1787, 1317.561 1786.296, 1318.421 1785.436 C 1319.833 1784.024, 1319.835 1783.582, 1318.445 1780.894 C 1316.103 1776.365, 1308.347 1764.502, 1301.408 1754.833 L 1295.187 1746.167 1314.343 1737.463 C 1324.880 1732.676, 1345.590 1723.151, 1360.367 1716.296 C 1375.144 1709.442, 1387.556 1704.209, 1387.951 1704.667 C 1388.345 1705.125, 1391.306 1709.775, 1394.530 1715 C 1406.006 1733.599, 1425.209 1762.143, 1426.606 1762.679 C 1428.496 1763.404, 1431 1761.225, 1431 1758.855 C 1431 1755.531, 1416.521 1728.509, 1402.679 1706 L 1398.067 1698.500 1406.783 1694.567 C 1430.305 1683.954, 1473.773 1660.679, 1474.754 1658.172 C 1475.040 1657.442, 1474.615 1656.186, 1473.810 1655.381 C 1472.525 1654.097, 1471.439 1654.245, 1464.923 1656.592 C 1456.034 1659.794, 1417.882 1676.159, 1402.576 1683.335 C 1395.618 1686.597, 1391.512 1688.036, 1391.266 1687.299 C 1390.613 1685.339, 1373.053 1658.918, 1368.291 1652.729 C 1364.919 1648.346, 1363.260 1646.964, 1361.648 1647.194 C 1356.862 1647.876, 1359.141 1653.933, 1374.367 1681 C 1377.925 1687.325, 1380.536 1692.801, 1380.168 1693.170 C 1379.270 1694.070, 1290.805 1736.130, 1289.375 1736.337 C 1288.756 1736.427, 1279.051 1724.329, 1267.810 1709.453 L 1247.371 1682.405 1295.935 1659.489 C 1373.915 1622.692, 1465.001 1579.052, 1485 1568.908 C 1495.175 1563.747, 1503.786 1559.386, 1504.135 1559.217 C 1504.485 1559.048, 1508.009 1564.325, 1511.967 1570.944 C 1522.891 1589.215, 1533.667 1604, 1536.058 1604 C 1541.032 1604, 1539.318 1599.463, 1522.273 1567.500 C 1504.258 1533.719, 1475.486 1483.055, 1473.584 1481.765 C 1472.005 1480.695, 1470.562 1480.838, 1469.200 1482.200 M 1854.811 1526.250 C 1838.118 1556.539, 1827.994 1579.130, 1797.787 1653.500 C 1776.446 1706.039, 1773.424 1713.844, 1768.588 1728.905 C 1764.473 1741.718, 1764.115 1743.541, 1765.349 1745.399 C 1766.687 1747.415, 1766.384 1747.614, 1756.618 1751.115 C 1746.964 1754.575, 1736.263 1759.260, 1697 1777.218 C 1662.718 1792.897, 1613.798 1818.218, 1570.500 1842.695 C 1559.680 1848.812, 1541.127 1861.145, 1537.134 1864.875 C 1534.373 1867.454, 1534.048 1868.220, 1534.976 1869.956 C 1537.268 1874.239, 1541.224 1872.667, 1576.500 1853.461 C 1627.557 1825.663, 1676.435 1801.070, 1730.442 1776.006 C 1759.053 1762.728, 1775.293 1754.557, 1776.884 1752.640 C 1778.702 1750.449, 1777.866 1747.555, 1775.309 1747.189 C 1773.150 1746.881, 1773.154 1746.843, 1776.165 1740.189 C 1780.449 1730.723, 1800.010 1682.858, 1826.509 1617 C 1846.314 1567.781, 1863 1522.289, 1863 1517.515 C 1863 1513.647, 1859.983 1516.865, 1854.811 1526.250 M 870.455 1882.455 C 869.019 1883.890, 868 1886.070, 868 1887.705 C 868.001 1896.997, 885.019 2033.202, 894.587 2100.500 C 898.439 2127.596, 899.349 2130.444, 905.028 2133.162 C 908.140 2134.653, 911.143 2134.735, 934 2133.956 C 948.025 2133.478, 1004.275 2132.615, 1059 2132.039 C 1362.615 2128.842, 1556.346 2125.583, 1599.500 2122.947 C 1624.955 2121.393, 1656.825 2117.462, 1660.028 2115.483 C 1663.909 2113.084, 1657.111 2105.572, 1649.688 2104.057 C 1629.918 2100.019, 1531.979 2098.454, 1390.264 2099.911 C 1289.995 2100.942, 1155.934 2103.027, 1096 2104.487 C 1083.075 2104.802, 1043.475 2105.709, 1008 2106.504 C 972.525 2107.298, 938.550 2108.208, 932.500 2108.527 L 921.500 2109.107 913.644 2062.304 C 903.996 2004.823, 889.976 1923.204, 885.937 1901 C 883.328 1886.653, 882.607 1884.206, 880.412 1882.250 C 877.127 1879.322, 873.513 1879.396, 870.455 1882.455 M 1568.500 2219.922 C 1544.813 2223.755, 1524.120 2234.839, 1504.941 2253.969 C 1481.276 2277.572, 1467.751 2304.884, 1466.297 2332 C 1465.371 2349.256, 1470.319 2362.590, 1481.885 2374.006 C 1489.594 2381.616, 1496.959 2385.509, 1507.849 2387.730 C 1514.815 2389.150, 1516.485 2389.139, 1527.481 2387.597 C 1564.862 2382.356, 1598.275 2360.724, 1623.565 2325.391 C 1630.581 2315.590, 1640.014 2298.179, 1642.981 2289.556 C 1649.978 2269.218, 1646.762 2250.597, 1634.067 2237.956 C 1627.456 2231.373, 1615.369 2225.048, 1603.500 2221.961 C 1594.641 2219.657, 1576.625 2218.607, 1568.500 2219.922 M 1608.009 2248.489 C 1606.992 2249.714, 1607.347 2250.631, 1610.012 2253.666 C 1614.724 2259.033, 1616.287 2263.498, 1616.254 2271.500 C 1616.205 2283.490, 1609.899 2298.870, 1598.208 2315.512 C 1591.483 2325.086, 1585.497 2330.774, 1572.127 2340.297 C 1565.872 2344.753, 1558.721 2350.238, 1556.237 2352.487 C 1552.042 2356.285, 1551.837 2356.695, 1553.367 2358.224 C 1556.576 2361.434, 1568.814 2357.694, 1580.304 2349.993 C 1586.861 2345.598, 1600.237 2332.971, 1606.250 2325.500 C 1611.418 2319.079, 1617.417 2309.384, 1621.026 2301.619 C 1631.431 2279.233, 1629.982 2260.186, 1617.127 2250.371 C 1612.309 2246.692, 1609.911 2246.197, 1608.009 2248.489 M 840.500 2380.700 C 793.202 2384.996, 746.120 2419.732, 722.990 2467.395 C 704.382 2505.740, 705.671 2542.570, 726.352 2563.376 C 748.349 2585.507, 787.426 2585.700, 831.500 2563.897 C 846.463 2556.494, 859.493 2547.281, 872.366 2535 C 896.143 2512.317, 912.217 2488.420, 920.695 2463.151 C 923.665 2454.301, 924.353 2450.632, 924.765 2441.455 C 925.551 2423.943, 921.545 2413.240, 909.923 2401.800 C 894.881 2386.996, 866.419 2378.345, 840.500 2380.700 M 1258.500 2382.040 C 1217.560 2387.407, 1176.677 2416.872, 1151.715 2459 C 1139.888 2478.961, 1133.758 2499.380, 1133.703 2519 C 1133.646 2539.044, 1138.508 2552.522, 1149.979 2564.115 C 1168.357 2582.690, 1197.611 2586.081, 1234.249 2573.882 C 1259.187 2565.579, 1277.233 2553.938, 1299.050 2532.080 C 1315.762 2515.336, 1325.791 2502.805, 1333.927 2488.502 C 1343.775 2471.191, 1347.953 2457.057, 1347.983 2440.960 C 1348.014 2423.809, 1343.320 2412.318, 1331.873 2401.519 C 1315.915 2386.465, 1285.777 2378.464, 1258.500 2382.040 M 1287.667 2402.667 C 1285.757 2404.576, 1287.200 2406.977, 1290.849 2407.959 C 1299.532 2410.297, 1306.313 2417.583, 1310.151 2428.698 C 1312.128 2434.423, 1312.500 2437.479, 1312.500 2448 C 1312.500 2458.486, 1312.114 2461.678, 1310.105 2467.812 C 1302.858 2489.933, 1287.935 2509.594, 1268.434 2522.710 C 1259.058 2529.017, 1248 2539.112, 1248 2541.366 C 1248 2543.965, 1251.586 2546.141, 1254.632 2545.391 C 1266.067 2542.575, 1277.643 2533.891, 1296.105 2514.280 C 1325.638 2482.909, 1332.683 2456.757, 1319.932 2425.835 C 1315.462 2414.996, 1309.500 2407.371, 1302.790 2403.912 C 1299.164 2402.044, 1289.117 2401.216, 1287.667 2402.667 M 866.250 2407.706 C 862.641 2408.401, 863.614 2409.513, 869.435 2411.348 C 880.483 2414.831, 888.845 2422.751, 893.049 2433.718 C 897.857 2446.258, 894.879 2466.158, 886.186 2479.578 C 875.097 2496.697, 855.051 2516.184, 835.500 2528.850 C 824.515 2535.967, 805.844 2546.362, 797.558 2549.975 C 792.027 2552.386, 790 2553.770, 790 2555.135 C 790 2557.184, 790.283 2557.255, 797.414 2557.006 C 809.857 2556.571, 824.887 2550.680, 839.811 2540.388 C 863.182 2524.271, 881.659 2506.480, 893.700 2488.500 C 908.108 2466.986, 911.204 2447.433, 903.049 2429.448 C 897.768 2417.800, 888.520 2410.185, 877.006 2408.001 C 871.623 2406.980, 870.217 2406.942, 866.250 2407.706" stroke="none" fill="#044606" fill-rule="evenodd"/></svg>